<svg width="512" height="256" viewBox="0 0 256 128" fill="none" xmlns="http://www.w3.org/2000/svg">
<path d="M62.3472 78H58V59.3622C58 54.5203 61.9947 50.5943 66.9222 50.5943H74.1665C76.1039 50.5943 77.6746 52.1385 77.6746 54.0423V57.7142H66.9222C65.9965 57.7142 65.2458 58.4518 65.2458 59.3622V75.1517C65.2458 76.7246 63.9479 78 62.3472 78Z" fill="#74BC1F"/>
<path d="M128.025 78H119.302C114.374 78 110.379 74.0747 110.379 69.2328V59.3622C110.379 54.5203 114.374 50.5943 119.302 50.5943H123.257C125.195 50.5943 126.766 52.1385 126.766 54.0423V57.7142H119.302C118.375 57.7142 117.625 58.4518 117.625 59.3622V69.2328C117.625 70.1424 118.375 70.8801 119.302 70.8801H128.025C128.95 70.8801 129.701 70.1424 129.701 69.2328V38.0002H133.439C135.376 38.0002 136.947 39.5436 136.947 41.4482V69.2328C136.947 74.0747 132.952 78 128.025 78Z" fill="#74BC1F"/>
<path d="M148.546 51.439C149.626 52.7787 154.262 58.5373 155.245 59.7576L150.785 64.1416C148.119 62.0689 142.686 57.8438 139.993 55.7494C139.961 55.7254 139.961 55.6851 139.99 55.6572L144.749 50.9803C145.768 49.9793 147.448 50.0753 148.342 51.1857L148.546 51.439Z" fill="#74BC1F"/>
<path d="M142.313 70.7242C143.677 69.6634 149.537 65.1074 150.779 64.1412L155.241 68.5244C153.584 70.5808 150.577 74.3147 148.33 77.1057C147.438 78.2129 145.765 78.3059 144.749 77.3071L139.934 72.5752L142.313 70.7242Z" fill="#74BC1F"/>
<path d="M161.942 76.8442C160.862 75.5046 156.225 69.746 155.242 68.5257L159.703 64.1417C162.368 66.2144 167.802 70.4395 170.495 72.5339C170.526 72.5579 170.526 72.5982 170.498 72.6261L165.738 77.3029C164.72 78.304 163.04 78.208 162.146 77.0976L161.942 76.8442Z" fill="#74BC1F"/>
<path d="M168.169 57.5577C166.806 58.6184 160.946 63.1744 159.704 64.1406L155.242 59.7574C156.887 57.7157 159.862 54.0206 162.104 51.2374C163.052 50.0596 164.709 49.9682 165.79 51.0297L170.549 55.7066L168.169 57.5577Z" fill="#74BC1F"/>
<path d="M190.079 50.5943H177.629C175.691 50.5943 174.12 52.1377 174.12 54.0423V57.7142H190.079C191.006 57.7142 191.757 58.4518 191.757 59.3622V69.232C191.757 70.1417 191.006 70.8801 190.079 70.8801H181.692C180.581 70.8801 179.679 69.9945 179.679 68.9027C179.679 67.811 180.581 66.9261 181.692 66.9261H188.821V64.2491C188.821 62.8242 187.644 61.6681 186.194 61.6681H180.743C176.154 61.6681 172.434 65.3238 172.434 69.8333C172.434 74.342 176.153 77.9977 180.742 77.9985L190.079 78C195.008 78 199.002 74.0739 199.002 69.232V59.3622C199.002 54.5196 195.008 50.5943 190.079 50.5943Z" fill="#74BC1F"/>
<path d="M97.0168 50.5943H84.5667C82.6285 50.5943 81.0578 52.1377 81.0578 54.0423V57.7142H97.0168C97.9434 57.7142 98.694 58.4518 98.694 59.3622V69.232C98.694 70.1417 97.9434 70.8801 97.0168 70.8801H88.6292C87.5182 70.8801 86.6169 69.9945 86.6169 68.9027C86.6169 67.811 87.5182 66.9261 88.6292 66.9261H95.7583V64.2491C95.7583 62.8242 94.5819 61.6681 93.1317 61.6681H87.6806C83.0914 61.6681 79.3711 65.3238 79.3711 69.8333C79.3711 74.342 83.0906 77.9977 87.6791 77.9985L97.0168 78C101.945 78 105.94 74.0739 105.94 69.232V59.3622C105.94 54.5196 101.945 50.5943 97.0168 50.5943Z" fill="#74BC1F"/>
</svg>
