<svg width="128" height="128" viewBox="0 0 128 128" fill="none" xmlns="http://www.w3.org/2000/svg">
<rect width="128" height="128" rx="22" fill="white"/>
<path d="M43.7733 25.5078C47.0373 29.5874 61.0566 47.1234 64.0297 50.8397L50.5421 64.1899C42.4835 57.8782 26.0538 45.0117 17.9116 38.6338C17.8163 38.5607 17.8163 38.438 17.9021 38.3531L32.2933 24.1109C35.3737 21.0624 40.4521 21.355 43.1558 24.7362L43.7733 25.5078Z" fill="#74BC1F"/>
<path d="M24.9373 84.2424C29.0596 81.0122 46.7792 67.1381 50.5343 64.1958L64.0243 77.5437C59.015 83.8059 49.924 95.1765 43.1289 103.675C40.4324 107.047 35.373 107.33 32.3022 104.289L17.7417 89.8793L24.9373 84.2424Z" fill="#74BC1F"/>
<path d="M84.2818 102.867C81.0178 98.7877 66.9961 81.2517 64.0254 77.5354L77.513 64.1852C85.5716 70.4969 102.001 83.3635 110.143 89.7413C110.239 89.8144 110.239 89.9371 110.153 90.0221L95.7618 104.264C92.6814 107.313 87.603 107.02 84.8993 103.639L84.2818 102.867Z" fill="#74BC1F"/>
<path d="M103.112 44.1433C98.9901 47.3735 81.2705 61.2476 77.5153 64.1899L64.0254 50.8421C68.9989 44.6247 77.9946 33.3721 84.7729 24.8966C87.6388 21.3101 92.6504 21.0317 95.9192 24.2643L110.308 38.5064L103.112 44.1433Z" fill="#74BC1F"/>
</svg>
